<svg width="800" height="450" viewBox="0 0 800 450" xmlns="http://www.w3.org/2000/svg">
  <rect width="800" height="450" fill="#0a0a0f"/>
  <text x="400" y="30" text-anchor="middle" fill="#ef4444" font-size="16" font-weight="bold" font-family="monospace">Admin Dashboard</text>
  <rect x="20" y="45" width="160" height="30" rx="4" fill="#ef4444/20"/><text x="40" y="65" fill="#ef4444" font-size="11" font-family="monospace">Economy Control</text>
  <rect x="190" y="45" width="120" height="30" rx="4" fill="#1f2937"/><text x="205" y="65" fill="#6b7280" font-size="11" font-family="monospace">Hero Manager</text>
  <rect x="320" y="45" width="120" height="30" rx="4" fill="#1f2937"/><text x="335" y="65" fill="#6b7280" font-size="11" font-family="monospace">Events</text>
  <rect x="450" y="45" width="120" height="30" rx="4" fill="#1f2937"/><text x="465" y="65" fill="#6b7280" font-size="11" font-family="monospace">Players</text>
  <rect x="580" y="45" width="120" height="30" rx="4" fill="#1f2937"/><text x="595" y="65" fill="#6b7280" font-size="11" font-family="monospace">Audit Log</text>
  <rect x="20" y="85" width="380" height="155" rx="8" fill="#111827"/>
  <text x="35" y="108" fill="#22d3ee" font-size="13" font-family="monospace">Economy Multipliers</text>
  <text x="35" y="135" fill="#6b7280" font-size="10" font-family="monospace">Reward Multiplier:</text>
  <rect x="200" y="125" width="180" height="6" rx="3" fill="#374151"/><rect x="200" y="125" width="126" height="6" rx="3" fill="#22d3ee"/><text x="260" y="123" fill="#22d3ee" font-size="9" font-family="monospace">1.0x</text>
  <text x="35" y="155" fill="#6b7280" font-size="10" font-family="monospace">Currency Drop Rate:</text>
  <rect x="200" y="145" width="180" height="6" rx="3" fill="#374151"/><rect x="200" y="145" width="108" height="6" rx="3" fill="#10b981"/><text x="248" y="143" fill="#10b981" font-size="9" font-family="monospace">1.0x</text>
  <text x="35" y="175" fill="#6b7280" font-size="10" font-family="monospace">Equipment Drop Rate:</text>
  <rect x="200" y="165" width="180" height="6" rx="3" fill="#374151"/><rect x="200" y="165" width="90" height="6" rx="3" fill="#a855f7"/><text x="230" y="163" fill="#a855f7" font-size="9" font-family="monospace">1.0x</text>
  <text x="35" y="195" fill="#6b7280" font-size="10" font-family="monospace">Cosmetic Drop Rate:</text>
  <rect x="200" y="185" width="180" height="6" rx="3" fill="#374151"/><rect x="200" y="185" width="72" height="6" rx="3" fill="#f59e0b"/><text x="212" y="183" fill="#f59e0b" font-size="9" font-family="monospace">1.0x</text>
  <text x="35" y="215" fill="#6b7280" font-size="10" font-family="monospace">Event Reward Multiplier:</text>
  <rect x="200" y="205" width="180" height="6" rx="3" fill="#374151"/><rect x="200" y="205" width="36" height="6" rx="3" fill="#ef4444"/><text x="236" y="203" fill="#ef4444" font-size="9" font-family="monospace">0.5x</text>
  <rect x="410" y="85" width="370" height="155" rx="8" fill="#111827"/>
  <text x="425" y="108" fill="#22d3ee" font-size="13" font-family="monospace">System Status</text>
  <rect x="425" y="120" width="140" height="24" rx="4" fill="#059669/30"/><text x="455" y="136" fill="#10b981" font-size="10" font-family="monospace">● Online</text>
  <rect x="575" y="120" width="100" height="24" rx="4" fill="#1f2937"/><text x="600" y="136" fill="#6b7280" font-size="10" font-family="monospace">Market: ON</text>
  <rect x="680" y="120" width="90" height="24" rx="4" fill="#1f2937"/><text x="700" y="136" fill="#6b7280" font-size="10" font-family="monospace">Trade: ON</text>
  <rect x="425" y="155" width="140" height="24" rx="4" fill="#1f2937"/><text x="455" y="171" fill="#6b7280" font-size="10" font-family="monospace">Maintenance: OFF</text>
  <rect x="575" y="155" width="100" height="24" rx="4" fill="#1f2937"/><text x="600" y="171" fill="#6b7280" font-size="10" font-family="monospace">Claims: ON</text>
  <rect x="680" y="155" width="90" height="24" rx="4" fill="#1f2937"/><text x="700" y="171" fill="#6b7280" font-size="10" font-family="monospace">Conv: ON</text>
  <rect x="425" y="190" width="340" height="40" rx="4" fill="#1f2937"/>
  <text x="440" y="208" fill="#6b7280" font-size="10" font-family="monospace">Total Players: 128 | Active Heroes: 456</text>
  <text x="440" y="222" fill="#6b7280" font-size="10" font-family="monospace">Total Kills: 12,847 | Total Maps Cleared: 3,421</text>
  <rect x="20" y="250" width="760" height="155" rx="8" fill="#111827"/>
  <text x="35" y="273" fill="#22d3ee" font-size="13" font-family="monospace">Recent Audit Log</text>
  <text x="35" y="298" fill="#6b7280" font-size="9" font-family="monospace">[12:34] admin_set_reward_multiplier: 1.0 -> 1.5</text>
  <text x="35" y="315" fill="#6b7280" font-size="9" font-family="monospace">[12:28] admin_give_xp: Hero Nova (id: h_123) +500 XP</text>
  <text x="35" y="332" fill="#6b7280" font-size="9" font-family="monospace">[12:15] admin_ban: Address 0x742...d39f</text>
  <text x="35" y="349" fill="#6b7280" font-size="9" font-family="monospace">[11:58] admin_broadcast: "Server maintenance at 02:00 UTC"</text>
  <text x="35" y="366" fill="#6b7280" font-size="9" font-family="monospace">[11:42] admin_add_potions: 50 potions to 0x8a3...b21e</text>
  <text x="35" y="383" fill="#6b7280" font-size="9" font-family="monospace">[11:30] admin_clear_map: Map anomaly detected - map_892 cleared</text>
  <text x="400" y="440" text-anchor="middle" fill="#374151" font-size="11" font-family="monospace">Admin Dashboard - 0GBomber</text>
</svg>
