<svg width="800" height="450" viewBox="0 0 800 450" xmlns="http://www.w3.org/2000/svg">
  <rect width="800" height="450" fill="#0a0a0f"/>
  <text x="400" y="25" text-anchor="middle" fill="#22d3ee" font-size="14" font-weight="bold" font-family="monospace">Autonomous Map Farming</text>
  <rect x="10" y="35" width="540" height="380" rx="4" fill="#0d0d14"/>
  <!-- Grid -->
  <g stroke="#1a1a2e" stroke-width="0.5">
    <line x1="10" y1="55" x2="550" y2="55"/><line x1="10" y1="75" x2="550" y2="75"/>
    <line x1="10" y1="95" x2="550" y2="95"/><line x1="10" y1="115" x2="550" y2="115"/>
    <line x1="10" y1="135" x2="550" y2="135"/><line x1="10" y1="155" x2="550" y2="155"/>
    <line x1="10" y1="175" x2="550" y2="175"/><line x1="10" y1="195" x2="550" y2="195"/>
    <line x1="10" y1="215" x2="550" y2="215"/><line x1="10" y1="235" x2="550" y2="235"/>
    <line x1="10" y1="255" x2="550" y2="255"/><line x1="10" y1="275" x2="550" y2="275"/>
    <line x1="10" y1="295" x2="550" y2="295"/><line x1="10" y1="315" x2="550" y2="315"/>
    <line x1="10" y1="335" x2="550" y2="335"/><line x1="10" y1="355" x2="550" y2="355"/>
    <line x1="10" y1="375" x2="550" y2="375"/>
    <line x1="35" y1="35" x2="35" y2="415"/><line x1="60" y1="35" x2="60" y2="415"/>
    <line x1="85" y1="35" x2="85" y2="415"/><line x1="110" y1="35" x2="110" y2="415"/>
    <line x1="135" y1="35" x2="135" y2="415"/><line x1="160" y1="35" x2="160" y2="415"/>
    <line x1="185" y1="35" x2="185" y2="415"/><line x1="210" y1="35" x2="210" y2="415"/>
    <line x1="235" y1="35" x2="235" y2="415"/><line x1="260" y1="35" x2="260" y2="415"/>
    <line x1="285" y1="35" x2="285" y2="415"/><line x1="310" y1="35" x2="310" y2="415"/>
    <line x1="335" y1="35" x2="335" y2="415"/><line x1="360" y1="35" x2="360" y2="415"/>
    <line x1="385" y1="35" x2="385" y2="415"/><line x1="410" y1="35" x2="410" y2="415"/>
    <line x1="435" y1="35" x2="435" y2="415"/><line x1="460" y1="35" x2="460" y2="415"/>
    <line x1="485" y1="35" x2="485" y2="415"/><line x1="510" y1="35" x2="510" y2="415"/>
    <line x1="535" y1="35" x2="535" y2="415"/>
  </g>
  <!-- Destructible walls -->
  <rect x="38" y="38" width="20" height="20" rx="2" fill="#374151" opacity="0.5"/>
  <rect x="88" y="58" width="20" height="20" rx="2" fill="#4a5568" opacity="0.6"/>
  <rect x="138" y="78" width="20" height="20" rx="2" fill="#374151" opacity="0.5"/>
  <rect x="188" y="58" width="20" height="20" rx="2" fill="#4a5568" opacity="0.6"/>
  <rect x="238" y="98" width="20" height="20" rx="2" fill="#374151" opacity="0.5"/>
  <rect x="288" y="78" width="20" height="20" rx="2" fill="#4a5568" opacity="0.6"/>
  <rect x="338" y="58" width="20" height="20" rx="2" fill="#374151" opacity="0.5"/>
  <rect x="388" y="98" width="20" height="20" rx="2" fill="#4a5568" opacity="0.6"/>
  <rect x="438" y="78" width="20" height="20" rx="2" fill="#374151" opacity="0.5"/>
  <rect x="488" y="58" width="20" height="20" rx="2" fill="#4a5568" opacity="0.6"/>
  <!-- Lava -->
  <rect x="188" y="178" width="20" height="20" rx="2" fill="#ef4444" opacity="0.4"/>
  <rect x="338" y="218" width="20" height="20" rx="2" fill="#ef4444" opacity="0.4"/>
  <!-- Hero 1 (Nova - Scout) -->
  <rect x="38" y="38" width="22" height="22" rx="4" fill="#22d3ee" opacity="0.8"/>
  <text x="44" y="53" fill="#fff" font-size="8" font-family="monospace">N</text>
  <!-- Hero 2 (Orion - Marine) -->
  <rect x="88" y="118" width="22" height="22" rx="4" fill="#a855f7" opacity="0.8"/>
  <text x="94" y="133" fill="#fff" font-size="8" font-family="monospace">O</text>
  <!-- Hero 3 (Lyra - Scientist) -->
  <rect x="188" y="138" width="22" height="22" rx="4" fill="#10b981" opacity="0.8"/>
  <text x="194" y="153" fill="#fff" font-size="8" font-family="monospace">L</text>
  <!-- Enemy -->
  <rect x="288" y="178" width="20" height="20" rx="4" fill="#ef4444" opacity="0.6"/>
  <text x="293" y="193" fill="#fff" font-size="8" font-family="monospace">C</text>
  <rect x="438" y="258" width="20" height="20" rx="4" fill="#dc2626" opacity="0.6"/>
  <text x="443" y="273" fill="#fff" font-size="8" font-family="monospace">H</text>
  <!-- Bomb -->
  <rect x="138" y="138" width="16" height="16" rx="8" fill="#f59e0b"/>
  <text x="143" y="149" fill="#000" font-size="7" font-family="monospace">B</text>
  <!-- Loot -->
  <rect x="338" y="138" width="12" height="12" rx="6" fill="#22d3ee" opacity="0.6"/>
  <!-- Right panel -->
  <rect x="560" y="35" width="230" height="380" rx="4" fill="#111827"/>
  <rect x="570" y="45" width="210" height="100" rx="4" fill="#1f2937"/>
  <text x="580" y="62" fill="#22d3ee" font-size="11" font-family="monospace">Nova - Scout</text>
  <text x="580" y="78" fill="#f59e0b" font-size="10" font-family="monospace">████████░░ 80% (96/120)</text>
  <text x="580" y="95" fill="#6b7280" font-size="9" font-family="monospace">HP: 45/45 | Kills: 3</text>
  <text x="580" y="110" fill="#6b7280" font-size="9" font-family="monospace">Bombs: 5 | Range: 3</text>
  <text x="580" y="125" fill="#6b7280" font-size="9" font-family="monospace">Speed: 78 (fast)</text>
  <rect x="570" y="155" width="210" height="80" rx="4" fill="#1f2937"/>
  <text x="580" y="172" fill="#f59e0b" font-size="10" font-family="monospace">Battle Log</text>
  <text x="580" y="190" fill="#6b7280" font-size="8" font-family="monospace">Nova placed bomb (x: 5, y: 4)</text>
  <text x="580" y="205" fill="#ef4444" font-size="8" font-family="monospace">Orion damaged by Crawler (-2 HP)</text>
  <text x="580" y="220" fill="#10b981" font-size="8" font-family="monospace">Lyra collected loot at (x: 9, y: 7)</text>
  <text x="580" y="235" fill="#6b7280" font-size="8" font-family="monospace">Orion eliminated Crawler</text>
  <rect x="570" y="245" width="210" height="50" rx="4" fill="#1f2937"/>
  <text x="580" y="262" fill="#10b981" font-size="10" font-family="monospace">Loot</text>
  <text x="580" y="280" fill="#6b7280" font-size="8" font-family="monospace">Energy Potion (x3)</text>
  <text x="580" y="295" fill="#6b7280" font-size="8" font-family="monospace">Speed Booster (Common) - Equipment</text>
  <rect x="570" y="305" width="210" height="80" rx="4" fill="#1f2937"/>
  <text x="580" y="322" fill="#22d3ee" font-size="10" font-family="monospace">Controls</text>
  <rect x="580" y="332" width="90" height="22" rx="4" fill="#059669/30"/><text x="600" y="347" fill="#10b981" font-size="9" font-family="monospace">[Pause]</text>
  <rect x="680" y="332" width="90" height="22" rx="4" fill="#1f2937"/><text x="700" y="347" fill="#6b7280" font-size="9" font-family="monospace">[Discard]</text>
  <text x="580" y="360" fill="#6b7280" font-size="9" font-family="monospace">Ticks: 142 | Progress: 68%</text>
  <text x="580" y="375" fill="#6b7280" font-size="9" font-family="monospace">Elapsed: 49.7s | Difficulty: Advanced</text>
  <text x="400" y="440" text-anchor="middle" fill="#374151" font-size="11" font-family="monospace">Map Farming - 0GBomber</text>
</svg>
